<svg id="Capa_1" enable-background="new 0 0 512 512" height="512" viewBox="0 0 512 512" width="512" xmlns="http://www.w3.org/2000/svg"><path d="m442.047 98.232h-372.094c-20.223 0-35.191 18.811-30.648 38.517l45.969 199.396h341.451l45.969-199.396c4.544-19.706-10.424-38.517-30.647-38.517z" fill="#f8ad3e"/><path d="m99.953 98.232h-30c-20.223 0-35.191 18.811-30.648 38.517l45.969 199.396h30l-45.969-199.396c-4.543-19.706 10.425-38.517 30.648-38.517z" fill="#ed8d00"/><path d="m473.035 171.767h-434.07c-20.223 0-35.191 18.811-30.648 38.517l45.969 199.396c6.727 29.18 32.708 49.852 62.653 49.852h278.122c29.945 0 55.925-20.672 62.652-49.852l45.969-199.396c4.544-19.706-10.424-38.517-30.647-38.517z" fill="#f8ea69"/><path d="m84.286 409.68-45.969-199.396c-4.543-19.706 10.424-38.517 30.647-38.517h-30c-20.223 0-35.191 18.811-30.647 38.517l45.969 199.396c6.727 29.18 32.707 49.852 62.652 49.852h30c-29.944 0-55.925-20.672-62.652-49.852z" fill="#f8ad3e"/><ellipse cx="149.654" cy="401.765" fill="#ff97c1" rx="39.24" ry="31.249"/><ellipse cx="362.346" cy="401.765" fill="#ff97c1" rx="39.24" ry="31.249"/><path d="m160.896 241.819 87.632 90.337c4.09 4.216 10.855 4.216 14.945 0l87.632-90.337c6.405-6.603 1.726-17.659-7.472-17.659h-37.003v-151.65c0-11.069-8.973-20.042-20.042-20.042h-61.176c-11.069 0-20.042 8.973-20.042 20.042v151.65h-37.002c-9.198 0-13.877 11.056-7.472 17.659z" fill="#50e2ce"/><path d="m161.347 367.76c0-6.163 5.014-11.177 11.177-11.177s11.177 5.014 11.177 11.177c0 4.142 3.358 7.5 7.5 7.5s7.5-3.358 7.5-7.5c0-14.434-11.743-26.177-26.177-26.177s-26.177 11.743-26.177 26.177c0 4.142 3.358 7.5 7.5 7.5s7.5-3.358 7.5-7.5z"/><path d="m328.299 367.76c0-6.163 5.014-11.177 11.177-11.177s11.177 5.014 11.177 11.177c0 4.142 3.358 7.5 7.5 7.5s7.5-3.358 7.5-7.5c0-14.434-11.743-26.177-26.177-26.177s-26.176 11.743-26.176 26.177c0 4.142 3.358 7.5 7.5 7.5 4.142-.001 7.499-3.358 7.499-7.5z"/><path d="m256 406.115c9.76 0 19.042-4.228 25.466-11.599 2.721-3.123 2.396-7.86-.727-10.581s-7.86-2.396-10.581.727c-3.574 4.101-8.734 6.453-14.157 6.453s-10.583-2.352-14.158-6.454c-2.722-3.123-7.459-3.448-10.581-.726-3.123 2.721-3.448 7.459-.726 10.581 6.423 7.372 15.705 11.599 25.464 11.599z"/><path d="m61.597 407.994-14.543-63.083c-.931-4.037-4.958-6.554-8.993-5.623-4.036.93-6.554 4.956-5.623 8.993l14.543 63.083c7.556 32.775 36.325 55.666 69.96 55.666h278.119c33.635 0 62.404-22.891 69.96-55.666l30.98-134.383c.931-4.037-1.587-8.063-5.623-8.993-4.038-.931-8.063 1.587-8.993 5.623l-30.981 134.383c-5.977 25.928-28.736 44.036-55.344 44.036h-278.118c-26.608 0-49.367-18.108-55.344-44.036z"/><path d="m474.038 164.297 5.962-25.862c5.623-24.385-12.885-47.701-37.955-47.701h-127.915v-18.222c0-15.186-12.355-27.542-27.542-27.542h-61.175c-15.186 0-27.542 12.355-27.542 27.542v18.222h-127.916c-25.026 0-43.587 23.274-37.955 47.702l5.962 25.861c-24.619.623-42.488 23.651-36.95 47.673l24.509 106.311c.931 4.036 4.957 6.556 8.993 5.623 4.036-.93 6.554-4.956 5.623-8.993l-24.508-106.311c-3.457-14.995 7.923-29.331 23.339-29.331h158.904v37.392h-29.502c-15.82 0-23.885 19.011-12.855 30.382 94.614 97.486 87.589 90.425 89.109 91.691 7.18 5.937 17.72 5.36 24.233-1.355l87.631-90.336c11-11.34 3.037-30.382-12.856-30.382h-29.502v-37.392h158.903c15.389 0 26.802 14.31 23.339 29.332l-8.071 35.011c-.931 4.037 1.587 8.063 5.623 8.993 4.037.931 8.063-1.587 8.993-5.623l8.071-35.011c5.534-24.003-12.309-47.05-36.95-47.674zm-420.689-.028-6.733-29.202c-3.457-14.995 7.923-29.332 23.339-29.332h127.916v58.535h-144.522zm202.651 163.548c-2.357 0 3.194 4.06-89.72-91.22-1.794-1.85-.516-4.937 2.089-4.937h37.002c4.142 0 7.5-3.358 7.5-7.5 0-92.721 0-58.514 0-151.649 0-6.915 5.626-12.542 12.542-12.542h61.175c6.915 0 12.542 5.626 12.542 12.542v151.649c0 4.142 3.358 7.5 7.5 7.5h37.002c2.579 0 3.9 3.069 2.089 4.937-93.352 96.115-87.737 91.22-89.721 91.22zm58.13-163.548v-58.535h127.916c15.388 0 26.802 14.31 23.339 29.332l-6.733 29.203z"/></svg>
